<svg width="176" height="34" viewBox="0 0 176 34" fill="none" xmlns="http://www.w3.org/2000/svg">
<path d="M20.136 33H0.408V0.983997H6.024V28.056H20.136V33ZM37.8581 33.576C33.3141 33.576 29.8581 32.392 27.4901 30.024C25.1541 27.656 23.9861 24.44 23.9861 20.376V0.983997H29.6501V20.184C29.6501 22.776 30.3541 24.824 31.7621 26.328C33.2021 27.832 35.2341 28.584 37.8581 28.584C40.4821 28.584 42.4981 27.832 43.9061 26.328C45.3141 24.824 46.0181 22.776 46.0181 20.184V0.983997H51.6821V20.328C51.6821 24.424 50.4981 27.656 48.1301 30.024C45.7941 32.392 42.3701 33.576 37.8581 33.576ZM80.4221 33H58.4861V0.983997H80.4221V5.928H64.1021V14.232H80.0861V19.176H64.1021V28.056H80.4221V33ZM113.933 33H108.509L91.8053 10.152V33H86.1893V0.983997H91.9493L108.317 23.208V0.983997H113.933V33ZM136.096 33.576C131.296 33.576 127.296 32.04 124.096 28.968C120.896 25.864 119.296 21.88 119.296 17.016C119.296 12.152 120.896 8.184 124.096 5.112C127.296 2.008 131.296 0.455998 136.096 0.455998C141.664 0.455998 145.952 2.856 148.96 7.656L144.16 10.104C143.36 8.728 142.224 7.608 140.752 6.744C139.312 5.88 137.76 5.448 136.096 5.448C132.928 5.448 130.288 6.536 128.176 8.712C126.096 10.888 125.056 13.656 125.056 17.016C125.056 20.376 126.096 23.144 128.176 25.32C130.288 27.496 132.928 28.584 136.096 28.584C137.792 28.584 139.36 28.152 140.8 27.288C142.24 26.424 143.36 25.304 144.16 23.928L148.96 26.376C145.888 31.176 141.6 33.576 136.096 33.576ZM175.391 33H153.455V0.983997H175.391V5.928H159.071V14.232H175.055V19.176H159.071V28.056H175.391V33Z" fill="#0DBF69"/>
</svg>
